<svg width="16" height="16" viewBox="0 0 16 16" fill="none" xmlns="http://www.w3.org/2000/svg">
<path d="M14.6312 6.1195C14.5452 5.8675 14.3178 5.6895 14.0525 5.66883L10.2518 5.36683L8.60716 1.72616C8.49982 1.48683 8.26182 1.3335 7.99982 1.3335C7.73782 1.3335 7.49982 1.48683 7.39249 1.7255L5.74782 5.36683L1.94716 5.66883C1.68649 5.6895 1.46182 5.86083 1.37316 6.10683C1.28449 6.35283 1.34716 6.62816 1.53449 6.81083L4.34316 9.54883L3.34982 13.8502C3.28849 14.1162 3.39582 14.3928 3.62049 14.5482C3.73516 14.6268 3.86716 14.6668 3.99982 14.6668C4.12849 14.6668 4.25782 14.6295 4.36982 14.5548L7.99982 12.1348L11.6298 14.5548C11.8618 14.7095 12.1665 14.7035 12.3932 14.5388C12.6185 14.3742 12.7178 14.0855 12.6412 13.8175L11.4218 9.55083L14.4458 6.8295C14.6438 6.65083 14.7165 6.37216 14.6312 6.1195Z" fill="#FFBA08"/>
</svg>
