<svg width="140" height="86" viewBox="0 0 140 86" fill="none" xmlns="http://www.w3.org/2000/svg">
<g clip-path="url(#clip0_1_294)">
<path d="M78.9047 20.349C78.2049 20.294 77.4966 20.349 76.7947 20.3109C76.2768 20.2834 76.1203 20.5012 76.133 20.9895C76.1584 21.9388 76.1394 22.8901 76.1394 23.8415C76.1373 24.2284 76.1373 24.6153 76.1373 25.0022C76.1373 27.6258 76.1373 27.6258 78.7672 27.4863C80.9194 27.3721 82.0632 26.1459 82.0843 23.9303C82.1033 21.8056 80.9702 20.5117 78.9047 20.349ZM79.5791 25.5603C78.9579 26.1696 77.8011 25.9979 77.8011 25.9979V21.9536C77.8011 21.9536 78.9744 21.7379 79.5791 22.4885C79.5812 22.4906 79.5833 22.4927 79.5833 22.4948C79.7884 22.7041 79.911 22.9493 79.9786 23.2115C79.9786 23.2115 79.9786 23.2115 79.9786 23.2136C80.2408 23.9409 80.1325 25.0066 79.5791 25.5603Z" fill="#6366F1"/>
<path d="M92.8732 26.5513C92.3088 24.7437 91.7189 22.9467 91.1587 21.137C91.0149 20.6719 90.7866 20.4922 90.2665 20.4922C90.0593 20.4922 89.8373 20.5006 89.6111 20.5049C89.6111 20.5049 89.6238 22.101 89.6301 22.0926C89.8141 22.7966 89.979 23.3886 90.1206 23.9869C90.165 24.175 90.2644 24.4625 90.0065 24.5302C89.8817 24.5619 89.7464 24.5809 89.6111 24.5852C89.4758 24.5809 89.3405 24.5619 89.2158 24.5302C88.9578 24.4625 89.0572 24.175 89.1016 23.9869C89.2433 23.3886 89.4082 22.7966 89.5921 22.0926C89.5984 22.101 89.6111 20.5049 89.6111 20.5049C89.3849 20.5006 89.1629 20.4922 88.9557 20.4922C88.4357 20.4922 88.2073 20.6719 88.0636 21.137C87.5033 22.9467 86.9135 24.7437 86.349 26.5513C85.9938 27.6845 86.0044 27.6866 87.2686 27.6781C88.0192 27.6781 88.1946 27.6189 88.3321 26.8536C88.4779 26.0587 88.7718 26.1729 89.6111 26.1813C90.4504 26.1729 90.7443 26.0587 90.8902 26.8536C91.0276 27.6189 91.2031 27.6781 91.9536 27.6781C93.2178 27.6866 93.2284 27.6845 92.8732 26.5513Z" fill="#6366F1"/>
<path d="M66.4645 25.7647C66.4769 25.6914 66.5505 25.6421 66.6224 25.6616C67.3374 25.8552 67.9926 26.1463 68.6999 26.1364C69.0737 26.1311 69.4486 26.093 69.5297 25.6632C69.6033 25.2736 69.2627 25.1495 68.9695 25.0085C68.4644 24.7656 67.9547 24.525 67.4765 24.2349C66.1355 23.4214 66.1702 21.5667 67.541 20.7809C68.7063 20.1128 69.9069 20.3052 71.1189 20.6648C71.5464 20.7916 71.4359 20.8969 71.3247 21.2794C70.9959 22.2318 71.064 22.2914 70.5342 22.1635C70.0925 22.0567 69.6513 21.9314 69.2025 21.8791C68.9333 21.8479 68.6175 21.9079 68.5515 22.2707C68.494 22.5865 68.7486 22.6912 68.9644 22.8037C69.4317 23.0468 70.0682 23.3487 70.3688 23.5265C71.165 23.9979 71.6824 24.6755 71.5069 25.7083C71.3304 26.7467 70.705 27.2738 69.7209 27.5332C68.7492 27.7894 67.8287 27.6469 66.9327 27.3013C66.0877 26.9749 66.2416 27.0641 66.4645 25.7647Z" fill="#6366F1"/>
<path d="M57.5261 25.7642C57.5388 25.6909 57.6121 25.6416 57.684 25.6611C58.399 25.8547 59.0542 26.1458 59.7616 26.1359C60.1353 26.1306 60.5102 26.0926 60.5914 25.6628C60.6649 25.2731 60.3243 25.149 60.0311 25.008C59.526 24.7651 59.0163 24.5245 58.5381 24.2344C57.1971 23.4209 57.2318 21.5662 58.6026 20.7804C59.7679 20.1123 60.9685 20.3047 62.1805 20.6643C62.608 20.7911 62.4975 20.8964 62.3863 21.2789C62.0575 22.2313 62.1256 22.2909 61.5958 22.163C61.1541 22.0562 60.7129 21.9309 60.2641 21.8787C59.995 21.8474 59.6791 21.9074 59.6131 22.2702C59.5556 22.5861 59.8102 22.6907 60.026 22.8032C60.4933 23.0463 61.1298 23.3482 61.4305 23.526C62.2266 23.9974 62.744 24.675 62.5685 25.7078C62.392 26.7463 61.7666 27.2733 60.7825 27.5327C59.8108 27.7889 58.8903 27.6465 57.9943 27.3008C57.1493 26.9744 57.303 27.0636 57.5261 25.7642Z" fill="#6366F1"/>
<path d="M51.4521 20.5049C51.6331 20.526 51.8862 20.5338 52.1703 20.5909C52.5777 20.6656 53.399 20.8594 53.1872 21.3863C52.9557 21.9617 52.9045 22.6108 51.9437 22.1844C50.9642 21.7499 50.1936 22.1531 49.8913 23.1662C49.6369 24.0184 49.5242 24.9463 50.1619 25.679C50.6786 26.2727 51.36 26.1904 52.0752 26.0374C52.4487 25.9723 52.9242 25.4405 53.0377 26.1257C53.1246 26.6498 53.3267 27.2851 52.4692 27.59C49.8872 28.5073 47.6198 26.8828 47.7169 24.1247C47.7968 21.8438 49.0864 20.5218 51.4521 20.5049Z" fill="#6366F1"/>
<path d="M90.3465 20.4922H88.9336V22.0784H90.3465V20.4922Z" fill="#6366F1"/>
<path d="M101.946 31.6328H39V32.6427H52.5171C55.1051 32.6808 57.693 32.7098 60.2809 32.7019C60.9289 32.7 61.3955 32.8793 61.853 33.3484C63.7711 35.3152 65.7552 37.2181 67.6546 39.2025C68.225 39.7984 68.5214 39.7247 69.0539 39.1849C71.008 37.2044 73.0114 35.2723 74.9995 33.3256C75.271 33.0599 75.5853 32.6413 76.0339 32.6425H80.1144C75.2162 37.5376 69.7419 42.9136 64.7808 47.8702C64.7388 47.9123 64.77 47.9839 64.8297 47.9839C65.1011 47.9839 65.3569 47.9839 65.6125 47.9839C70.192 47.9842 74.7714 48.0017 79.3506 48.0017C80.4091 48.0017 80.347 48.0064 81.0914 47.2618C85.6241 42.7291 90.1722 38.2112 94.681 33.6546C95.1582 33.1723 95.4931 32.8328 96.0559 32.6427H101.945V31.6328H101.946Z" fill="#6366F1"/>
<path d="M79.8584 15.3203C79.8292 15.3203 79.8005 15.3138 79.7747 15.3002C79.4614 15.1362 79.1838 14.8876 78.91 14.6066C76.9191 12.5637 74.8733 10.5743 72.8797 8.53415C72.437 8.08109 72.2023 8.04325 71.7389 8.53162C69.7757 10.6005 67.7643 12.6235 65.7652 14.658C65.6176 14.8081 65.491 15.0789 65.322 15.2668C65.2899 15.3026 65.2428 15.3205 65.1948 15.3205H61.5722C61.4164 15.3205 61.3384 15.1326 61.4494 15.0233C66.377 10.1751 71.4611 4.98558 76.1872 0.338283C76.306 0.221583 76.2225 0.0207399 76.0559 0.0207399C75.8451 0.0205285 75.6323 0.0205285 75.5849 0.0205285C70.6894 0.0158774 65.7937 0.0258138 60.8984 2.13446e-05C60.3185 -0.00293845 60.0054 0.302343 59.6545 0.652232C54.9892 5.30079 50.313 9.93815 45.6623 14.6011C45.3883 14.8759 45.1137 15.1305 44.8046 15.2988C44.7781 15.3131 44.7483 15.3201 44.7183 15.3201H39.1742C39.078 15.3203 39 15.3983 39 15.4945V16.156C39 16.2522 39.078 16.3302 39.1742 16.3302H101.771C101.867 16.3302 101.945 16.2522 101.945 16.156V15.4945C101.945 15.3983 101.867 15.3203 101.771 15.3203H79.8584Z" fill="#6366F1"/>
</g>
<path d="M44.9147 80V71.068L43.0177 72.209V71.054L44.9147 69.92H45.9577V80H44.9147ZM47.7728 80L50.7268 76.178L47.8358 72.44H49.0678L51.3288 75.387L53.5688 72.44H54.8008L51.9098 76.178L54.8708 80H53.6318L51.3288 76.969L49.0118 80H47.7728ZM58.7984 80V69.92H59.8274V74.68L64.4264 69.92H65.7424L61.0454 74.785L66.1274 80H64.7834L59.8274 74.96V80H58.7984ZM69.5097 80.189C69.057 80.189 68.6603 80.119 68.3197 79.979C67.9837 79.839 67.6967 79.65 67.4587 79.412C67.2253 79.174 67.0363 78.9033 66.8917 78.6C66.747 78.292 66.642 77.9677 66.5767 77.627C66.5113 77.2817 66.4787 76.9387 66.4787 76.598V72.44H67.5147V76.297C67.5147 76.7123 67.5543 77.0973 67.6337 77.452C67.713 77.8067 67.839 78.117 68.0117 78.383C68.189 78.6443 68.4153 78.8473 68.6907 78.992C68.9707 79.1367 69.309 79.209 69.7057 79.209C70.0697 79.209 70.3893 79.146 70.6647 79.02C70.9447 78.894 71.178 78.7143 71.3647 78.481C71.556 78.243 71.7007 77.956 71.7987 77.62C71.8967 77.2793 71.9457 76.8967 71.9457 76.472L72.6737 76.633C72.6737 77.4077 72.5383 78.0587 72.2677 78.586C71.997 79.1133 71.6237 79.5123 71.1477 79.783C70.6717 80.0537 70.1257 80.189 69.5097 80.189ZM72.0507 80V78.138H71.9457V72.44H72.9747V80H72.0507ZM77.8642 80.21C77.1595 80.21 76.5575 80.035 76.0582 79.685C75.5588 79.3303 75.1762 78.852 74.9102 78.25C74.6442 77.648 74.5112 76.969 74.5112 76.213C74.5112 75.4617 74.6418 74.785 74.9032 74.183C75.1692 73.581 75.5495 73.105 76.0442 72.755C76.5388 72.405 77.1315 72.23 77.8222 72.23C78.5315 72.23 79.1288 72.4027 79.6142 72.748C80.0995 73.0933 80.4658 73.567 80.7132 74.169C80.9652 74.7663 81.0912 75.4477 81.0912 76.213C81.0912 76.9643 80.9675 77.6433 80.7202 78.25C80.4728 78.852 80.1088 79.3303 79.6282 79.685C79.1475 80.035 78.5595 80.21 77.8642 80.21ZM77.9692 79.251C78.5058 79.251 78.9492 79.1203 79.2992 78.859C79.6492 78.5977 79.9105 78.2383 80.0832 77.781C80.2558 77.319 80.3422 76.7963 80.3422 76.213C80.3422 75.6203 80.2558 75.0977 80.0832 74.645C79.9105 74.1877 79.6492 73.8307 79.2992 73.574C78.9538 73.3173 78.5175 73.189 77.9902 73.189C77.4488 73.189 77.0008 73.322 76.6462 73.588C76.2915 73.854 76.0278 74.2157 75.8552 74.673C75.6872 75.1303 75.6032 75.6437 75.6032 76.213C75.6032 76.787 75.6895 77.305 75.8622 77.767C76.0395 78.2243 76.3032 78.586 76.6532 78.852C77.0032 79.118 77.4418 79.251 77.9692 79.251ZM80.3422 80V74.309H80.2302V69.92H81.2662V80H80.3422ZM86.387 80.21C85.6357 80.21 84.994 80.0397 84.462 79.699C83.93 79.3583 83.5217 78.887 83.237 78.285C82.9523 77.683 82.81 76.9923 82.81 76.213C82.81 75.4197 82.9547 74.7243 83.244 74.127C83.5333 73.5297 83.944 73.0653 84.476 72.734C85.0127 72.398 85.6497 72.23 86.387 72.23C87.143 72.23 87.787 72.4003 88.319 72.741C88.8557 73.077 89.264 73.546 89.544 74.148C89.8287 74.7453 89.971 75.4337 89.971 76.213C89.971 77.0063 89.8287 77.704 89.544 78.306C89.2593 78.9033 88.8487 79.37 88.312 79.706C87.7753 80.042 87.1337 80.21 86.387 80.21ZM86.387 79.223C87.227 79.223 87.8523 78.9453 88.263 78.39C88.6737 77.83 88.879 77.1043 88.879 76.213C88.879 75.2983 88.6713 74.5703 88.256 74.029C87.8453 73.4877 87.2223 73.217 86.387 73.217C85.8223 73.217 85.3557 73.3453 84.987 73.602C84.623 73.854 84.35 74.2063 84.168 74.659C83.9907 75.107 83.902 75.625 83.902 76.213C83.902 77.123 84.112 77.8533 84.532 78.404C84.952 78.95 85.5703 79.223 86.387 79.223ZM94.2678 80.203C93.3811 80.203 92.6508 80.0117 92.0768 79.629C91.5075 79.2463 91.1575 78.7143 91.0268 78.033L92.0768 77.858C92.1888 78.2873 92.4431 78.6303 92.8398 78.887C93.2411 79.139 93.7358 79.265 94.3238 79.265C94.8978 79.265 95.3505 79.146 95.6818 78.908C96.0131 78.6653 96.1788 78.3363 96.1788 77.921C96.1788 77.6877 96.1251 77.4987 96.0178 77.354C95.9151 77.2047 95.7028 77.067 95.3808 76.941C95.0588 76.815 94.5781 76.6657 93.9388 76.493C93.2528 76.3063 92.7161 76.1197 92.3288 75.933C91.9415 75.7463 91.6661 75.5317 91.5028 75.289C91.3395 75.0417 91.2578 74.7407 91.2578 74.386C91.2578 73.9567 91.3791 73.581 91.6218 73.259C91.8645 72.9323 92.2005 72.6803 92.6298 72.503C93.0591 72.321 93.5585 72.23 94.1278 72.23C94.6971 72.23 95.2058 72.3233 95.6538 72.51C96.1065 72.692 96.4705 72.9487 96.7458 73.28C97.0211 73.6113 97.1845 73.9963 97.2358 74.435L96.1858 74.624C96.1158 74.1807 95.8941 73.8307 95.5208 73.574C95.1521 73.3127 94.6831 73.1773 94.1138 73.168C93.5771 73.154 93.1408 73.2567 92.8048 73.476C92.4688 73.6907 92.3008 73.9777 92.3008 74.337C92.3008 74.5377 92.3615 74.7103 92.4828 74.855C92.6041 74.995 92.8235 75.128 93.1408 75.254C93.4628 75.38 93.9201 75.5177 94.5128 75.667C95.2081 75.8443 95.7541 76.031 96.1508 76.227C96.5475 76.423 96.8298 76.654 96.9978 76.92C97.1658 77.186 97.2498 77.515 97.2498 77.907C97.2498 78.621 96.9838 79.1833 96.4518 79.594C95.9245 80 95.1965 80.203 94.2678 80.203Z" fill="#565973"/>
<defs>
<clipPath id="clip0_1_294">
<rect width="100" height="48" fill="white" transform="translate(20)"/>
</clipPath>
</defs>
</svg>
