<svg width="140" height="86" viewBox="0 0 140 86" fill="none" xmlns="http://www.w3.org/2000/svg">
<path d="M84.1587 2.00049L76.3282 32.1923L68.7839 2.00049H64.0284H59.2729L51.7286 32.1923L43.8981 2.00049H33L46.9731 45.8865H56.4841L64.0284 17.3753L71.5727 45.8865H81.0838L95.0568 2.00049H84.1587Z" fill="#B4B7C9"/>
<path d="M98.8574 31.3511C103.05 31.3511 106.125 34.426 106.125 38.6187C106.125 42.8113 103.05 45.8863 98.8574 45.8863C94.6648 45.8863 91.5898 42.8113 91.5898 38.6187C91.5898 34.426 94.6641 31.3511 98.8574 31.3511Z" fill="#B4B7C9"/>
<path d="M5.81498 80.203C5.31564 80.203 4.85598 80.1143 4.43598 79.937C4.01598 79.7597 3.65431 79.5077 3.35098 79.181C3.04764 78.8497 2.82598 78.4553 2.68598 77.998L3.66598 77.704C3.83398 78.2033 4.10931 78.5813 4.49198 78.838C4.87931 79.0947 5.31564 79.2183 5.80098 79.209C6.24898 79.1997 6.63398 79.0993 6.95598 78.908C7.28264 78.7167 7.53231 78.4507 7.70498 78.11C7.87764 77.7693 7.96398 77.375 7.96398 76.927C7.96398 76.241 7.76331 75.6903 7.36198 75.275C6.96531 74.855 6.44031 74.645 5.78698 74.645C5.60498 74.645 5.41364 74.6707 5.21298 74.722C5.01231 74.7687 4.82564 74.8363 4.65298 74.925L4.13498 74.106L8.05498 70.487L8.22298 70.907H3.08498V69.92H8.90898V70.921L5.49298 74.183L5.47898 73.777C6.17898 73.6883 6.79498 73.7677 7.32698 74.015C7.85898 74.2623 8.27431 74.6403 8.57298 75.149C8.87631 75.653 9.02798 76.2457 9.02798 76.927C9.02798 77.571 8.88798 78.1403 8.60798 78.635C8.33264 79.125 7.95231 79.51 7.46698 79.79C6.98164 80.0653 6.43098 80.203 5.81498 80.203ZM10.0043 80L12.9583 76.178L10.0673 72.44H11.2993L13.5603 75.387L15.8003 72.44H17.0323L14.1413 76.178L17.1023 80H15.8633L13.5603 76.969L11.2433 80H10.0043ZM22.6398 80L20.3298 72.433L21.3588 72.44L23.1508 78.313L24.9498 72.44H25.8878L27.6868 78.313L29.4928 72.44H30.5148L28.2048 80H27.3088L25.4188 73.98L23.5358 80H22.6398ZM34.7015 80.21C33.9641 80.21 33.3248 80.0467 32.7835 79.72C32.2468 79.3933 31.8291 78.9337 31.5305 78.341C31.2318 77.7483 31.0825 77.053 31.0825 76.255C31.0825 75.429 31.2295 74.715 31.5235 74.113C31.8175 73.511 32.2305 73.0467 32.7625 72.72C33.2991 72.3933 33.9315 72.23 34.6595 72.23C35.4061 72.23 36.0431 72.4027 36.5705 72.748C37.0978 73.0887 37.4968 73.5787 37.7675 74.218C38.0381 74.8573 38.1618 75.6203 38.1385 76.507H37.0885V76.143C37.0698 75.163 36.8575 74.4233 36.4515 73.924C36.0501 73.4247 35.4621 73.175 34.6875 73.175C33.8755 73.175 33.2525 73.4387 32.8185 73.966C32.3891 74.4933 32.1745 75.2447 32.1745 76.22C32.1745 77.172 32.3891 77.9117 32.8185 78.439C33.2525 78.9617 33.8661 79.223 34.6595 79.223C35.2008 79.223 35.6721 79.0993 36.0735 78.852C36.4795 78.6 36.7991 78.2383 37.0325 77.767L37.9915 78.138C37.6928 78.796 37.2518 79.307 36.6685 79.671C36.0898 80.0303 35.4341 80.21 34.7015 80.21ZM31.8105 76.507V75.646H37.5855V76.507H31.8105ZM43.0869 80.21C42.3916 80.21 41.8036 80.035 41.3229 79.685C40.8422 79.3303 40.4782 78.852 40.2309 78.25C39.9836 77.6433 39.8599 76.9643 39.8599 76.213C39.8599 75.4477 39.9836 74.7663 40.2309 74.169C40.4829 73.567 40.8516 73.0933 41.3369 72.748C41.8222 72.4027 42.4196 72.23 43.1289 72.23C43.8196 72.23 44.4122 72.405 44.9069 72.755C45.4016 73.105 45.7796 73.581 46.0409 74.183C46.3069 74.785 46.4399 75.4617 46.4399 76.213C46.4399 76.969 46.3069 77.648 46.0409 78.25C45.7749 78.852 45.3922 79.3303 44.8929 79.685C44.3936 80.035 43.7916 80.21 43.0869 80.21ZM39.6849 80V69.92H40.7209V74.309H40.6089V80H39.6849ZM42.9819 79.251C43.5092 79.251 43.9479 79.118 44.2979 78.852C44.6479 78.586 44.9092 78.2243 45.0819 77.767C45.2592 77.305 45.3479 76.787 45.3479 76.213C45.3479 75.6437 45.2616 75.1303 45.0889 74.673C44.9162 74.2157 44.6526 73.854 44.2979 73.588C43.9479 73.322 43.5022 73.189 42.9609 73.189C42.4336 73.189 41.9949 73.3173 41.6449 73.574C41.2996 73.8307 41.0406 74.1877 40.8679 74.645C40.6952 75.0977 40.6089 75.6203 40.6089 76.213C40.6089 76.7963 40.6952 77.319 40.8679 77.781C41.0406 78.2383 41.3019 78.5977 41.6519 78.859C42.0019 79.1203 42.4452 79.251 42.9819 79.251ZM50.7297 80.203C49.843 80.203 49.1127 80.0117 48.5387 79.629C47.9694 79.2463 47.6194 78.7143 47.4887 78.033L48.5387 77.858C48.6507 78.2873 48.905 78.6303 49.3017 78.887C49.703 79.139 50.1977 79.265 50.7857 79.265C51.3597 79.265 51.8124 79.146 52.1437 78.908C52.475 78.6653 52.6407 78.3363 52.6407 77.921C52.6407 77.6877 52.587 77.4987 52.4797 77.354C52.377 77.2047 52.1647 77.067 51.8427 76.941C51.5207 76.815 51.04 76.6657 50.4007 76.493C49.7147 76.3063 49.178 76.1197 48.7907 75.933C48.4034 75.7463 48.128 75.5317 47.9647 75.289C47.8014 75.0417 47.7197 74.7407 47.7197 74.386C47.7197 73.9567 47.841 73.581 48.0837 73.259C48.3264 72.9323 48.6624 72.6803 49.0917 72.503C49.521 72.321 50.0204 72.23 50.5897 72.23C51.159 72.23 51.6677 72.3233 52.1157 72.51C52.5684 72.692 52.9324 72.9487 53.2077 73.28C53.483 73.6113 53.6464 73.9963 53.6977 74.435L52.6477 74.624C52.5777 74.1807 52.356 73.8307 51.9827 73.574C51.614 73.3127 51.145 73.1773 50.5757 73.168C50.039 73.154 49.6027 73.2567 49.2667 73.476C48.9307 73.6907 48.7627 73.9777 48.7627 74.337C48.7627 74.5377 48.8234 74.7103 48.9447 74.855C49.066 74.995 49.2854 75.128 49.6027 75.254C49.9247 75.38 50.382 75.5177 50.9747 75.667C51.67 75.8443 52.216 76.031 52.6127 76.227C53.0094 76.423 53.2917 76.654 53.4597 76.92C53.6277 77.186 53.7117 77.515 53.7117 77.907C53.7117 78.621 53.4457 79.1833 52.9137 79.594C52.3864 80 51.6584 80.203 50.7297 80.203ZM55.4042 71.005V69.85H56.4332V71.005H55.4042ZM55.4042 80V72.44H56.4332V80H55.4042ZM62.6478 80C62.2231 80.0887 61.8031 80.1237 61.3878 80.105C60.9771 80.0863 60.6084 79.9977 60.2818 79.839C59.9598 79.6803 59.7148 79.433 59.5468 79.097C59.4114 78.817 59.3368 78.5347 59.3228 78.25C59.3134 77.9607 59.3088 77.6317 59.3088 77.263V70.34H60.3308V77.221C60.3308 77.5383 60.3331 77.8043 60.3378 78.019C60.3471 78.229 60.3961 78.4157 60.4848 78.579C60.6528 78.8917 60.9188 79.0783 61.2828 79.139C61.6514 79.1997 62.1064 79.1857 62.6478 79.097V80ZM57.6918 73.322V72.44H62.6478V73.322H57.6918ZM67.0628 80.21C66.3255 80.21 65.6861 80.0467 65.1448 79.72C64.6081 79.3933 64.1905 78.9337 63.8918 78.341C63.5931 77.7483 63.4438 77.053 63.4438 76.255C63.4438 75.429 63.5908 74.715 63.8848 74.113C64.1788 73.511 64.5918 73.0467 65.1238 72.72C65.6605 72.3933 66.2928 72.23 67.0208 72.23C67.7675 72.23 68.4045 72.4027 68.9318 72.748C69.4591 73.0887 69.8581 73.5787 70.1288 74.218C70.3995 74.8573 70.5231 75.6203 70.4998 76.507H69.4498V76.143C69.4311 75.163 69.2188 74.4233 68.8128 73.924C68.4115 73.4247 67.8235 73.175 67.0488 73.175C66.2368 73.175 65.6138 73.4387 65.1798 73.966C64.7505 74.4933 64.5358 75.2447 64.5358 76.22C64.5358 77.172 64.7505 77.9117 65.1798 78.439C65.6138 78.9617 66.2275 79.223 67.0208 79.223C67.5621 79.223 68.0335 79.0993 68.4348 78.852C68.8408 78.6 69.1605 78.2383 69.3938 77.767L70.3528 78.138C70.0541 78.796 69.6131 79.307 69.0298 79.671C68.4511 80.0303 67.7955 80.21 67.0628 80.21ZM64.1718 76.507V75.646H69.9468V76.507H64.1718ZM78.013 80.21C77.2616 80.21 76.62 80.0397 76.088 79.699C75.556 79.3583 75.1476 78.887 74.863 78.285C74.5783 77.683 74.436 76.9923 74.436 76.213C74.436 75.4197 74.5806 74.7243 74.87 74.127C75.1593 73.5297 75.57 73.0653 76.102 72.734C76.6386 72.398 77.2756 72.23 78.013 72.23C78.769 72.23 79.413 72.4003 79.945 72.741C80.4816 73.077 80.89 73.546 81.17 74.148C81.4546 74.7453 81.597 75.4337 81.597 76.213C81.597 77.0063 81.4546 77.704 81.17 78.306C80.8853 78.9033 80.4746 79.37 79.938 79.706C79.4013 80.042 78.7596 80.21 78.013 80.21ZM78.013 79.223C78.853 79.223 79.4783 78.9453 79.889 78.39C80.2996 77.83 80.505 77.1043 80.505 76.213C80.505 75.2983 80.2973 74.5703 79.882 74.029C79.4713 73.4877 78.8483 73.217 78.013 73.217C77.4483 73.217 76.9816 73.3453 76.613 73.602C76.249 73.854 75.976 74.2063 75.794 74.659C75.6166 75.107 75.528 75.625 75.528 76.213C75.528 77.123 75.738 77.8533 76.158 78.404C76.578 78.95 77.1963 79.223 78.013 79.223ZM83.8901 80V71.88C83.8901 71.684 83.8995 71.4903 83.9181 71.299C83.9415 71.1077 83.9858 70.9257 84.0511 70.753C84.1165 70.5757 84.2191 70.4123 84.3591 70.263C84.5131 70.095 84.6811 69.9737 84.8631 69.899C85.0451 69.8197 85.2341 69.7683 85.4301 69.745C85.6308 69.7217 85.8268 69.71 86.0181 69.71H86.9841V70.578H86.0881C85.6961 70.578 85.4021 70.6737 85.2061 70.865C85.0148 71.0563 84.9191 71.3573 84.9191 71.768V80H83.8901ZM82.5811 73.322V72.44H86.9841V73.322H82.5811ZM95.0228 80C94.5981 80.0887 94.1781 80.1237 93.7628 80.105C93.3521 80.0863 92.9834 79.9977 92.6568 79.839C92.3348 79.6803 92.0898 79.433 91.9218 79.097C91.7864 78.817 91.7118 78.5347 91.6978 78.25C91.6884 77.9607 91.6838 77.6317 91.6838 77.263V70.34H92.7058V77.221C92.7058 77.5383 92.7081 77.8043 92.7128 78.019C92.7221 78.229 92.7711 78.4157 92.8598 78.579C93.0278 78.8917 93.2938 79.0783 93.6578 79.139C94.0264 79.1997 94.4814 79.1857 95.0228 79.097V80ZM90.0668 73.322V72.44H95.0228V73.322H90.0668ZM101.972 80V76.143C101.972 75.723 101.933 75.338 101.853 74.988C101.774 74.6333 101.646 74.3253 101.468 74.064C101.296 73.798 101.069 73.5927 100.789 73.448C100.514 73.3033 100.178 73.231 99.7812 73.231C99.4172 73.231 99.0952 73.294 98.8152 73.42C98.5399 73.546 98.3066 73.728 98.1152 73.966C97.9286 74.1993 97.7862 74.484 97.6882 74.82C97.5902 75.156 97.5412 75.5387 97.5412 75.968L96.8132 75.807C96.8132 75.0323 96.9486 74.3813 97.2192 73.854C97.4899 73.3267 97.8632 72.9277 98.3392 72.657C98.8152 72.3863 99.3612 72.251 99.9772 72.251C100.43 72.251 100.824 72.321 101.16 72.461C101.501 72.601 101.788 72.79 102.021 73.028C102.259 73.266 102.451 73.539 102.595 73.847C102.74 74.1503 102.845 74.4747 102.91 74.82C102.976 75.1607 103.008 75.5013 103.008 75.842V80H101.972ZM96.5052 80V69.92H97.4362V75.611H97.5412V80H96.5052ZM108.024 80.21C107.286 80.21 106.647 80.0467 106.106 79.72C105.569 79.3933 105.151 78.9337 104.853 78.341C104.554 77.7483 104.405 77.053 104.405 76.255C104.405 75.429 104.552 74.715 104.846 74.113C105.14 73.511 105.553 73.0467 106.085 72.72C106.621 72.3933 107.254 72.23 107.982 72.23C108.728 72.23 109.365 72.4027 109.893 72.748C110.42 73.0887 110.819 73.5787 111.09 74.218C111.36 74.8573 111.484 75.6203 111.461 76.507H110.411V76.143C110.392 75.163 110.18 74.4233 109.774 73.924C109.372 73.4247 108.784 73.175 108.01 73.175C107.198 73.175 106.575 73.4387 106.141 73.966C105.711 74.4933 105.497 75.2447 105.497 76.22C105.497 77.172 105.711 77.9117 106.141 78.439C106.575 78.9617 107.188 79.223 107.982 79.223C108.523 79.223 108.994 79.0993 109.396 78.852C109.802 78.6 110.121 78.2383 110.355 77.767L111.314 78.138C111.015 78.796 110.574 79.307 109.991 79.671C109.412 80.0303 108.756 80.21 108.024 80.21ZM105.133 76.507V75.646H110.908V76.507H105.133ZM118.75 80.21C118.045 80.21 117.443 80.035 116.944 79.685C116.445 79.3303 116.062 78.852 115.796 78.25C115.53 77.648 115.397 76.969 115.397 76.213C115.397 75.4617 115.528 74.785 115.789 74.183C116.055 73.581 116.435 73.105 116.93 72.755C117.425 72.405 118.017 72.23 118.708 72.23C119.417 72.23 120.015 72.4027 120.5 72.748C120.985 73.0933 121.352 73.567 121.599 74.169C121.851 74.7663 121.977 75.4477 121.977 76.213C121.977 76.9643 121.853 77.6433 121.606 78.25C121.359 78.852 120.995 79.3303 120.514 79.685C120.033 80.035 119.445 80.21 118.75 80.21ZM118.855 79.251C119.392 79.251 119.835 79.1203 120.185 78.859C120.535 78.5977 120.796 78.2383 120.969 77.781C121.142 77.319 121.228 76.7963 121.228 76.213C121.228 75.6203 121.142 75.0977 120.969 74.645C120.796 74.1877 120.535 73.8307 120.185 73.574C119.84 73.3173 119.403 73.189 118.876 73.189C118.335 73.189 117.887 73.322 117.532 73.588C117.177 73.854 116.914 74.2157 116.741 74.673C116.573 75.1303 116.489 75.6437 116.489 76.213C116.489 76.787 116.575 77.305 116.748 77.767C116.925 78.2243 117.189 78.586 117.539 78.852C117.889 79.118 118.328 79.251 118.855 79.251ZM121.228 80V74.309H121.116V69.92H122.152V80H121.228ZM126.279 80.21C125.709 80.21 125.231 80.1073 124.844 79.902C124.461 79.6967 124.174 79.4237 123.983 79.083C123.791 78.7423 123.696 78.3713 123.696 77.97C123.696 77.5593 123.777 77.2093 123.941 76.92C124.109 76.626 124.335 76.3857 124.62 76.199C124.909 76.0123 125.243 75.87 125.621 75.772C126.003 75.6787 126.426 75.597 126.888 75.527C127.354 75.4523 127.809 75.3893 128.253 75.338C128.701 75.282 129.093 75.2283 129.429 75.177L129.065 75.401C129.079 74.6543 128.934 74.1013 128.631 73.742C128.327 73.3827 127.8 73.203 127.049 73.203C126.531 73.203 126.092 73.3197 125.733 73.553C125.378 73.7863 125.128 74.155 124.984 74.659L123.983 74.365C124.155 73.6883 124.503 73.1633 125.026 72.79C125.548 72.4167 126.227 72.23 127.063 72.23C127.753 72.23 128.339 72.3607 128.82 72.622C129.305 72.8787 129.648 73.252 129.849 73.742C129.942 73.9613 130.003 74.2063 130.031 74.477C130.059 74.7477 130.073 75.023 130.073 75.303V80H129.156V78.103L129.422 78.215C129.165 78.8637 128.766 79.3583 128.225 79.699C127.683 80.0397 127.035 80.21 126.279 80.21ZM126.398 79.321C126.878 79.321 127.298 79.2347 127.658 79.062C128.017 78.8893 128.306 78.6537 128.526 78.355C128.745 78.0517 128.887 77.711 128.953 77.333C129.009 77.0903 129.039 76.8243 129.044 76.535C129.048 76.241 129.051 76.0217 129.051 75.877L129.443 76.08C129.093 76.1267 128.712 76.1733 128.302 76.22C127.896 76.2667 127.494 76.3203 127.098 76.381C126.706 76.4417 126.351 76.514 126.034 76.598C125.819 76.6587 125.611 76.745 125.411 76.857C125.21 76.9643 125.044 77.109 124.914 77.291C124.788 77.473 124.725 77.6993 124.725 77.97C124.725 78.1893 124.778 78.4017 124.886 78.607C124.998 78.8123 125.175 78.9827 125.418 79.118C125.665 79.2533 125.992 79.321 126.398 79.321ZM132.549 83.36L134.012 79.391L134.033 80.567L130.722 72.44H131.814L134.53 79.237H134.082L136.588 72.44H137.638L133.578 83.36H132.549Z" fill="#565973"/>
</svg>
