<svg width="140" height="86" viewBox="0 0 140 86" fill="none" xmlns="http://www.w3.org/2000/svg">
<path d="M99.1417 15.6548C99.4502 15.6548 99.7402 15.7331 99.9934 15.8705C100.55 16.1732 100.929 16.7634 100.929 17.4418V22.5186H105.843C106.83 22.5186 107.63 23.3186 107.63 24.3056C107.63 25.2925 106.83 26.0928 105.843 26.0928H100.929V30.9105C100.929 31.8974 100.129 32.6975 99.1417 32.6975C98.9341 32.6975 85.4544 32.6921 85.4544 32.6921C84.4673 32.6921 83.6672 31.8921 83.6672 30.9049V24.2244H83.6714C83.7143 23.2755 84.4948 22.5186 85.4544 22.5186H97.3548V19.2288H83.6192L77.1003 31.325C76.9962 31.8604 76.6514 32.3422 76.1219 32.5966C75.8726 32.7165 75.6092 32.7733 75.3499 32.7733C74.7302 32.7733 74.1336 32.4484 73.8061 31.8865C73.7401 31.7858 73.684 31.6793 73.6397 31.5687L68.4915 21.4634L63.2834 31.3435C63.058 31.8728 62.7285 32.3419 62.199 32.5966C61.9497 32.7165 61.6862 32.7733 61.4272 32.7733C60.8073 32.7733 60.2109 32.4487 59.8832 31.8867C59.8169 31.7858 59.7609 31.6791 59.7163 31.568L53.4301 19.2285H42.931V22.5183H51.4196C52.4066 22.5183 53.2066 23.3184 53.2066 24.3053C53.2066 25.2923 52.4066 26.0925 51.4196 26.0925H42.931V31.0072C42.931 31.9942 42.1309 32.7942 41.144 32.7942C40.1571 32.7942 39.3568 31.9942 39.3568 31.0072V26.0928H34.4425C33.4556 26.0928 32.6553 25.2927 32.6553 24.3056C32.6553 23.3186 33.4554 22.5186 34.4425 22.5186H39.3568V17.4418C39.3568 16.7634 39.735 16.1732 40.2921 15.8705C40.5453 15.7331 40.8355 15.6548 41.144 15.6548H54.4657C54.7555 15.6548 55.0284 15.7253 55.2704 15.8478C55.6442 16.014 55.9634 16.3077 56.1545 16.7051L61.4233 27.0478L66.7089 17.1699C66.9748 16.6291 67.122 16.1432 67.6929 15.8686C67.9422 15.7487 68.2057 15.6919 68.4647 15.6919C68.9067 15.6919 69.3371 15.8569 69.6666 16.1551C69.9921 16.4098 70.1427 16.5821 70.3662 17.0149L75.3462 27.0475L80.9357 16.6769C81.0812 16.4215 81.2808 16.2165 81.5108 16.0662C81.8203 15.8091 82.218 15.6544 82.652 15.6544H99.1417V15.6548ZM87.1605 29.1179H97.3548V26.0928H87.1603V29.1179H87.1605ZM99.1417 11.9995H82.652C81.4545 11.9995 80.286 12.3977 79.3383 13.1246C78.6933 13.583 78.1496 14.1827 77.759 14.8694L77.738 14.906L77.7181 14.943L75.4376 19.1742C75.4376 19.1742 72.7902 13.9912 72.0218 13.3593C71.0322 12.5057 69.7745 12.037 68.4647 12.037C67.6552 12.037 66.8403 12.223 66.1085 12.5749C64.69 13.2569 63.9053 14.5071 63.2361 15.9794L61.5144 19.174L59.4248 15.0722C58.8765 13.9607 57.9617 13.0676 56.8376 12.5451C56.1002 12.1879 55.2821 11.9995 54.4657 11.9995H41.144C40.2389 11.9995 39.3412 12.2274 38.5475 12.6584C36.792 13.612 35.7014 15.4448 35.7014 17.4418V18.8633H34.4425C31.4415 18.8633 29 21.3048 29 24.3056C29 27.3066 31.4415 29.7479 34.4425 29.7479H35.7014V31.0072C35.7014 34.008 38.143 36.4496 41.144 36.4496C44.1448 36.4496 46.5863 34.008 46.5863 31.0072V29.7479H51.4196C52.4655 29.7479 53.4437 29.4513 54.274 28.9378L56.4048 33.1203C56.5115 33.3593 56.636 33.5918 56.7766 33.8141C57.759 35.4295 59.5315 36.4286 61.4272 36.4286C62.237 36.4286 63.0519 36.2424 63.7834 35.8905C65.111 35.2523 66.2642 34.175 66.8532 32.7942L68.4011 29.3372L70.3292 33.1215C70.4354 33.3593 70.559 33.5904 70.6991 33.8116C71.6811 35.4285 73.4542 36.4284 75.3506 36.4284C76.1604 36.4284 76.975 36.2422 77.7068 35.8905C78.9511 35.2925 79.9183 34.2334 80.4162 32.9616C81.2291 34.946 83.1818 36.3472 85.4552 36.3472L99.1424 36.3511C102.143 36.3511 104.585 34.0083 104.585 31.0072V29.7479H105.844C108.845 29.7479 111.286 27.3066 111.286 24.3056C111.286 21.3048 108.845 18.8633 105.844 18.8633H104.585V17.4418C104.585 15.4448 103.494 13.612 101.739 12.6584C100.945 12.2274 100.047 11.9995 99.1417 11.9995Z" fill="#B4B7C9"/>
<path d="M19.9842 79.993L19.9912 79.055L24.5482 74.939C24.9402 74.5843 25.1992 74.2483 25.3252 73.931C25.4558 73.609 25.5212 73.273 25.5212 72.923C25.5212 72.5077 25.4232 72.132 25.2272 71.796C25.0312 71.46 24.7675 71.194 24.4362 70.998C24.1048 70.7973 23.7338 70.697 23.3232 70.697C22.8938 70.697 22.5112 70.7997 22.1752 71.005C21.8392 71.2103 21.5732 71.481 21.3772 71.817C21.1858 72.153 21.0925 72.5193 21.0972 72.916H20.0472C20.0472 72.3047 20.1918 71.7563 20.4812 71.271C20.7705 70.7857 21.1625 70.4053 21.6572 70.13C22.1518 69.85 22.7118 69.71 23.3372 69.71C23.9485 69.71 24.4968 69.8547 24.9822 70.144C25.4722 70.4287 25.8572 70.816 26.1372 71.306C26.4218 71.7913 26.5642 72.3327 26.5642 72.93C26.5642 73.35 26.5128 73.721 26.4102 74.043C26.3122 74.3603 26.1558 74.6567 25.9412 74.932C25.7312 75.2027 25.4628 75.4827 25.1362 75.772L21.0902 79.426L20.9292 79.006H26.5642V79.993H19.9842ZM27.4086 80L30.3626 76.178L27.4716 72.44H28.7036L30.9646 75.387L33.2046 72.44H34.4366L31.5456 76.178L34.5066 80H33.2676L30.9646 76.969L28.6476 80H27.4086ZM41.8291 80.21C41.1338 80.21 40.5458 80.035 40.0651 79.685C39.5844 79.3303 39.2204 78.852 38.9731 78.25C38.7258 77.6433 38.6021 76.9643 38.6021 76.213C38.6021 75.4477 38.7258 74.7663 38.9731 74.169C39.2251 73.567 39.5938 73.0933 40.0791 72.748C40.5644 72.4027 41.1618 72.23 41.8711 72.23C42.5618 72.23 43.1544 72.405 43.6491 72.755C44.1438 73.105 44.5218 73.581 44.7831 74.183C45.0491 74.785 45.1821 75.4617 45.1821 76.213C45.1821 76.969 45.0491 77.648 44.7831 78.25C44.5171 78.852 44.1344 79.3303 43.6351 79.685C43.1358 80.035 42.5338 80.21 41.8291 80.21ZM38.4271 80V69.92H39.4631V74.309H39.3511V80H38.4271ZM41.7241 79.251C42.2514 79.251 42.6901 79.118 43.0401 78.852C43.3901 78.586 43.6514 78.2243 43.8241 77.767C44.0014 77.305 44.0901 76.787 44.0901 76.213C44.0901 75.6437 44.0038 75.1303 43.8311 74.673C43.6584 74.2157 43.3948 73.854 43.0401 73.588C42.6901 73.322 42.2444 73.189 41.7031 73.189C41.1758 73.189 40.7371 73.3173 40.3871 73.574C40.0418 73.8307 39.7828 74.1877 39.6101 74.645C39.4374 75.0977 39.3511 75.6203 39.3511 76.213C39.3511 76.7963 39.4374 77.319 39.6101 77.781C39.7828 78.2383 40.0441 78.5977 40.3941 78.859C40.7441 79.1203 41.1874 79.251 41.7241 79.251ZM49.9183 80.21C49.1809 80.21 48.5416 80.0467 48.0003 79.72C47.4636 79.3933 47.0459 78.9337 46.7473 78.341C46.4486 77.7483 46.2993 77.053 46.2993 76.255C46.2993 75.429 46.4463 74.715 46.7403 74.113C47.0343 73.511 47.4473 73.0467 47.9793 72.72C48.5159 72.3933 49.1483 72.23 49.8763 72.23C50.6229 72.23 51.2599 72.4027 51.7873 72.748C52.3146 73.0887 52.7136 73.5787 52.9843 74.218C53.2549 74.8573 53.3786 75.6203 53.3553 76.507H52.3053V76.143C52.2866 75.163 52.0743 74.4233 51.6683 73.924C51.2669 73.4247 50.6789 73.175 49.9043 73.175C49.0923 73.175 48.4693 73.4387 48.0353 73.966C47.6059 74.4933 47.3913 75.2447 47.3913 76.22C47.3913 77.172 47.6059 77.9117 48.0353 78.439C48.4693 78.9617 49.0829 79.223 49.8763 79.223C50.4176 79.223 50.8889 79.0993 51.2903 78.852C51.6963 78.6 52.0159 78.2383 52.2493 77.767L53.2083 78.138C52.9096 78.796 52.4686 79.307 51.8853 79.671C51.3066 80.0303 50.6509 80.21 49.9183 80.21ZM47.0273 76.507V75.646H52.8023V76.507H47.0273ZM57.7297 80.203C56.843 80.203 56.1127 80.0117 55.5387 79.629C54.9694 79.2463 54.6194 78.7143 54.4887 78.033L55.5387 77.858C55.6507 78.2873 55.905 78.6303 56.3017 78.887C56.703 79.139 57.1977 79.265 57.7857 79.265C58.3597 79.265 58.8124 79.146 59.1437 78.908C59.475 78.6653 59.6407 78.3363 59.6407 77.921C59.6407 77.6877 59.587 77.4987 59.4797 77.354C59.377 77.2047 59.1647 77.067 58.8427 76.941C58.5207 76.815 58.04 76.6657 57.4007 76.493C56.7147 76.3063 56.178 76.1197 55.7907 75.933C55.4034 75.7463 55.128 75.5317 54.9647 75.289C54.8014 75.0417 54.7197 74.7407 54.7197 74.386C54.7197 73.9567 54.841 73.581 55.0837 73.259C55.3264 72.9323 55.6624 72.6803 56.0917 72.503C56.521 72.321 57.0204 72.23 57.5897 72.23C58.159 72.23 58.6677 72.3233 59.1157 72.51C59.5684 72.692 59.9324 72.9487 60.2077 73.28C60.483 73.6113 60.6464 73.9963 60.6977 74.435L59.6477 74.624C59.5777 74.1807 59.356 73.8307 58.9827 73.574C58.614 73.3127 58.145 73.1773 57.5757 73.168C57.039 73.154 56.6027 73.2567 56.2667 73.476C55.9307 73.6907 55.7627 73.9777 55.7627 74.337C55.7627 74.5377 55.8234 74.7103 55.9447 74.855C56.066 74.995 56.2854 75.128 56.6027 75.254C56.9247 75.38 57.382 75.5177 57.9747 75.667C58.67 75.8443 59.216 76.031 59.6127 76.227C60.0094 76.423 60.2917 76.654 60.4597 76.92C60.6277 77.186 60.7117 77.515 60.7117 77.907C60.7117 78.621 60.4457 79.1833 59.9137 79.594C59.3864 80 58.6584 80.203 57.7297 80.203ZM66.3802 80C65.9555 80.0887 65.5355 80.1237 65.1202 80.105C64.7095 80.0863 64.3408 79.9977 64.0142 79.839C63.6922 79.6803 63.4472 79.433 63.2792 79.097C63.1438 78.817 63.0692 78.5347 63.0552 78.25C63.0458 77.9607 63.0412 77.6317 63.0412 77.263V70.34H64.0632V77.221C64.0632 77.5383 64.0655 77.8043 64.0702 78.019C64.0795 78.229 64.1285 78.4157 64.2172 78.579C64.3852 78.8917 64.6512 79.0783 65.0152 79.139C65.3838 79.1997 65.8388 79.1857 66.3802 79.097V80ZM61.4242 73.322V72.44H66.3802V73.322H61.4242ZM72.2824 80L69.9724 72.433L71.0014 72.44L72.7934 78.313L74.5924 72.44H75.5304L77.3294 78.313L79.1354 72.44H80.1574L77.8474 80H76.9514L75.0614 73.98L73.1784 80H72.2824ZM84.344 80.21C83.6067 80.21 82.9674 80.0467 82.426 79.72C81.8894 79.3933 81.4717 78.9337 81.173 78.341C80.8744 77.7483 80.725 77.053 80.725 76.255C80.725 75.429 80.872 74.715 81.166 74.113C81.46 73.511 81.873 73.0467 82.405 72.72C82.9417 72.3933 83.574 72.23 84.302 72.23C85.0487 72.23 85.6857 72.4027 86.213 72.748C86.7404 73.0887 87.1394 73.5787 87.41 74.218C87.6807 74.8573 87.8044 75.6203 87.781 76.507H86.731V76.143C86.7124 75.163 86.5 74.4233 86.094 73.924C85.6927 73.4247 85.1047 73.175 84.33 73.175C83.518 73.175 82.895 73.4387 82.461 73.966C82.0317 74.4933 81.817 75.2447 81.817 76.22C81.817 77.172 82.0317 77.9117 82.461 78.439C82.895 78.9617 83.5087 79.223 84.302 79.223C84.8434 79.223 85.3147 79.0993 85.716 78.852C86.122 78.6 86.4417 78.2383 86.675 77.767L87.634 78.138C87.3354 78.796 86.8944 79.307 86.311 79.671C85.7324 80.0303 85.0767 80.21 84.344 80.21ZM81.453 76.507V75.646H87.228V76.507H81.453ZM92.7295 80.21C92.0342 80.21 91.4462 80.035 90.9655 79.685C90.4848 79.3303 90.1208 78.852 89.8735 78.25C89.6262 77.6433 89.5025 76.9643 89.5025 76.213C89.5025 75.4477 89.6262 74.7663 89.8735 74.169C90.1255 73.567 90.4942 73.0933 90.9795 72.748C91.4648 72.4027 92.0622 72.23 92.7715 72.23C93.4622 72.23 94.0548 72.405 94.5495 72.755C95.0442 73.105 95.4222 73.581 95.6835 74.183C95.9495 74.785 96.0825 75.4617 96.0825 76.213C96.0825 76.969 95.9495 77.648 95.6835 78.25C95.4175 78.852 95.0348 79.3303 94.5355 79.685C94.0362 80.035 93.4342 80.21 92.7295 80.21ZM89.3275 80V69.92H90.3635V74.309H90.2515V80H89.3275ZM92.6245 79.251C93.1518 79.251 93.5905 79.118 93.9405 78.852C94.2905 78.586 94.5518 78.2243 94.7245 77.767C94.9018 77.305 94.9905 76.787 94.9905 76.213C94.9905 75.6437 94.9042 75.1303 94.7315 74.673C94.5588 74.2157 94.2952 73.854 93.9405 73.588C93.5905 73.322 93.1448 73.189 92.6035 73.189C92.0762 73.189 91.6375 73.3173 91.2875 73.574C90.9422 73.8307 90.6832 74.1877 90.5105 74.645C90.3378 75.0977 90.2515 75.6203 90.2515 76.213C90.2515 76.7963 90.3378 77.319 90.5105 77.781C90.6832 78.2383 90.9445 78.5977 91.2945 78.859C91.6445 79.1203 92.0878 79.251 92.6245 79.251ZM100.372 80.203C99.4856 80.203 98.7553 80.0117 98.1813 79.629C97.612 79.2463 97.262 78.7143 97.1313 78.033L98.1813 77.858C98.2933 78.2873 98.5476 78.6303 98.9443 78.887C99.3456 79.139 99.8403 79.265 100.428 79.265C101.002 79.265 101.455 79.146 101.786 78.908C102.118 78.6653 102.283 78.3363 102.283 77.921C102.283 77.6877 102.23 77.4987 102.122 77.354C102.02 77.2047 101.807 77.067 101.485 76.941C101.163 76.815 100.683 76.6657 100.043 76.493C99.3573 76.3063 98.8206 76.1197 98.4333 75.933C98.046 75.7463 97.7706 75.5317 97.6073 75.289C97.444 75.0417 97.3623 74.7407 97.3623 74.386C97.3623 73.9567 97.4836 73.581 97.7263 73.259C97.969 72.9323 98.305 72.6803 98.7343 72.503C99.1636 72.321 99.663 72.23 100.232 72.23C100.802 72.23 101.31 72.3233 101.758 72.51C102.211 72.692 102.575 72.9487 102.85 73.28C103.126 73.6113 103.289 73.9963 103.34 74.435L102.29 74.624C102.22 74.1807 101.999 73.8307 101.625 73.574C101.257 73.3127 100.788 73.1773 100.218 73.168C99.6816 73.154 99.2453 73.2567 98.9093 73.476C98.5733 73.6907 98.4053 73.9777 98.4053 74.337C98.4053 74.5377 98.466 74.7103 98.5873 74.855C98.7086 74.995 98.928 75.128 99.2453 75.254C99.5673 75.38 100.025 75.5177 100.617 75.667C101.313 75.8443 101.859 76.031 102.255 76.227C102.652 76.423 102.934 76.654 103.102 76.92C103.27 77.186 103.354 77.515 103.354 77.907C103.354 78.621 103.088 79.1833 102.556 79.594C102.029 80 101.301 80.203 100.372 80.203ZM105.047 71.005V69.85H106.076V71.005H105.047ZM105.047 80V72.44H106.076V80H105.047ZM112.29 80C111.866 80.0887 111.446 80.1237 111.03 80.105C110.62 80.0863 110.251 79.9977 109.924 79.839C109.602 79.6803 109.357 79.433 109.189 79.097C109.054 78.817 108.979 78.5347 108.965 78.25C108.956 77.9607 108.951 77.6317 108.951 77.263V70.34H109.973V77.221C109.973 77.5383 109.976 77.8043 109.98 78.019C109.99 78.229 110.039 78.4157 110.127 78.579C110.295 78.8917 110.561 79.0783 110.925 79.139C111.294 79.1997 111.749 79.1857 112.29 79.097V80ZM107.334 73.322V72.44H112.29V73.322H107.334ZM116.705 80.21C115.968 80.21 115.329 80.0467 114.787 79.72C114.251 79.3933 113.833 78.9337 113.534 78.341C113.236 77.7483 113.086 77.053 113.086 76.255C113.086 75.429 113.233 74.715 113.527 74.113C113.821 73.511 114.234 73.0467 114.766 72.72C115.303 72.3933 115.935 72.23 116.663 72.23C117.41 72.23 118.047 72.4027 118.574 72.748C119.102 73.0887 119.501 73.5787 119.771 74.218C120.042 74.8573 120.166 75.6203 120.142 76.507H119.092V76.143C119.074 75.163 118.861 74.4233 118.455 73.924C118.054 73.4247 117.466 73.175 116.691 73.175C115.879 73.175 115.256 73.4387 114.822 73.966C114.393 74.4933 114.178 75.2447 114.178 76.22C114.178 77.172 114.393 77.9117 114.822 78.439C115.256 78.9617 115.87 79.223 116.663 79.223C117.205 79.223 117.676 79.0993 118.077 78.852C118.483 78.6 118.803 78.2383 119.036 77.767L119.995 78.138C119.697 78.796 119.256 79.307 118.672 79.671C118.094 80.0303 117.438 80.21 116.705 80.21ZM113.814 76.507V75.646H119.589V76.507H113.814Z" fill="#565973"/>
</svg>
