<svg width="140" height="86" viewBox="0 0 140 86" fill="none" xmlns="http://www.w3.org/2000/svg">
<path d="M29 26.7349V30.3872C57.2606 28.7066 36.2433 27.8336 29 26.7349Z" fill="#B4B7C9"/>
<path d="M29 32.77V36.3565L29.2362 36.4156C50.7663 34.4285 44.5864 33.7041 29 32.77Z" fill="#B4B7C9"/>
<path d="M29 1V12.793C46.7193 12.1938 46.8068 11.1894 37.6176 9.97181L39.2705 7.96496C50.6156 9.70603 49.8962 12.5577 41.7495 13.9857C44.4793 14.9456 54.1553 16.7247 42.4577 20.2423C44.3613 20.7595 55.0962 23.4168 41.7495 25.7906C43.8641 26.7455 55.0843 28.1151 42.2215 31.5751C45.5521 32.1221 54.1108 33.9467 42.8119 37.5957C47.0836 38.0426 47.5665 38.1908 48.7142 40.1929V47.8661H53.9084V1H29Z" fill="#B4B7C9"/>
<path d="M29 21.1875V24.8472C34.3159 23.8016 58.5803 23.3773 29 21.1875Z" fill="#B4B7C9"/>
<path d="M29 14.9497V18.8259C45.6116 17.9323 51.224 16.775 29 14.9497Z" fill="#B4B7C9"/>
<path d="M60.0099 13.4987H57.1758V12.9414H63.4478V13.4987H60.6143V21.0718H60.0099V13.4987Z" fill="#B4B7C9"/>
<path d="M64.981 12.9414H65.5851V16.7048H70.7886V12.9414H71.3927V21.0718H70.7886V17.2618H65.5851V21.0718H64.981V12.9414Z" fill="#B4B7C9"/>
<path d="M73.508 12.9414H79.2921V13.4987H74.1121V16.6929H78.7695V17.2507H74.1121V20.5145H79.3503V21.0718H73.5078V12.9414H73.508Z" fill="#B4B7C9"/>
<path d="M57.5977 25.7445H60.2957L61.902 31.0754L63.6789 25.7188H65.8772L67.6534 31.0754L69.2597 25.7445H71.9055L68.8255 35.0242H66.6008L64.7579 29.7201L62.9022 35.0242H60.6774L57.5977 25.7445Z" fill="#B4B7C9"/>
<path d="M71.9023 30.2751V30.2402C71.9023 27.4712 73.883 25.2803 76.6876 25.2803C79.9479 25.2803 81.4547 27.6816 81.4547 30.4681C81.4547 30.6784 81.4547 30.9238 81.4375 31.1521H75.0927C75.3554 32.1859 76.1093 32.7116 77.1428 32.7116C77.9498 32.7116 78.563 32.4138 79.2466 31.7477L81.0864 33.2727C80.1754 34.429 78.861 35.2003 76.9856 35.2003C74.0064 35.2001 71.9023 33.2024 71.9023 30.2751ZM78.3521 29.4516C78.2296 28.3995 77.5991 27.7334 76.6876 27.7334C75.8106 27.7334 75.2154 28.3995 75.0399 29.4516H78.3521Z" fill="#B4B7C9"/>
<path d="M83.2658 25.7461H87.9913C89.1498 25.7461 89.9657 26.0356 90.5055 26.5624C90.8738 26.9438 91.0977 27.431 91.0977 28.0628V28.089C91.0977 29.1552 90.4921 29.7871 89.676 30.1427C90.7952 30.511 91.5061 31.1428 91.5061 32.3936V32.4193C91.5061 33.9994 90.216 34.9602 88.0177 34.9602H83.2656V25.7461H83.2658ZM88.5835 28.5894C88.5835 28.076 88.176 27.7997 87.4257 27.7997H85.7536V29.4186H87.3599C88.1366 29.4186 88.5835 29.1552 88.5835 28.6156V28.5894ZM87.7018 31.2084H85.7539V32.9065H87.7282C88.5177 32.9065 88.9528 32.6038 88.9528 32.0642V32.038C88.9528 31.5378 88.5571 31.2084 87.7018 31.2084Z" fill="#B4B7C9"/>
<path d="M93.4768 25.7461H98.2023C99.3608 25.7461 100.177 26.0356 100.716 26.5624C101.085 26.9438 101.309 27.431 101.309 28.0628V28.089C101.309 29.1552 100.703 29.7871 99.8869 30.1427C101.006 30.511 101.716 31.1428 101.716 32.3936V32.4193C101.716 33.9994 100.427 34.9602 98.2287 34.9602H93.4766V25.7461H93.4768ZM98.7945 28.5894C98.7945 28.076 98.387 27.7997 97.6367 27.7997H95.9646V29.4186H97.5709C98.3467 29.4186 98.7945 29.1552 98.7945 28.6156V28.5894ZM97.9125 31.2084H95.9646V32.9065H97.939C98.7285 32.9065 99.1633 32.6038 99.1633 32.0642V32.038C99.1633 31.5378 98.7688 31.2084 97.9125 31.2084Z" fill="#B4B7C9"/>
<path d="M105.233 31.5116L101.719 25.7461H104.628L106.523 29.1024L108.432 25.7461H111.289L107.786 31.4722V34.9602H105.233V31.5116H105.233Z" fill="#B4B7C9"/>
<path d="M61.763 38.8984H62.3438L66.13 47.087H65.4684L64.4346 44.8104H59.6373L58.6035 47.087H57.9766L61.763 38.8984ZM64.1791 44.2643L62.0422 39.5605L59.893 44.2643H64.1791Z" fill="#B4B7C9"/>
<path d="M66.0859 38.9534H66.7597L69.3148 46.1895L71.6963 38.9297H72.1604L74.5421 46.1895L77.0973 38.9534H77.7242L74.7743 47.142H74.2864L71.905 40.0799L69.5238 47.142H69.0359L66.0859 38.9534Z" fill="#B4B7C9"/>
<path d="M81.6614 38.9033H82.2422L86.0284 47.0915H85.3668L84.333 44.8153H79.5357L78.5019 47.0915H77.875L81.6614 38.9033ZM84.0776 44.2692L81.9406 39.5654L79.7914 44.2692H84.0776Z" fill="#B4B7C9"/>
<path d="M87.4219 38.9531H90.8368C91.8359 38.9531 92.6375 39.2666 93.1254 39.7542C93.5087 40.1378 93.7409 40.6834 93.7409 41.2643V41.2875C93.7409 42.6462 92.7304 43.4251 91.3594 43.6105L94.0425 47.0837H93.2756L90.6857 43.7156H88.026V47.0837H87.4219V38.9531ZM90.7672 43.1692C92.1261 43.1692 93.1363 42.4839 93.1363 41.3111V41.2875C93.1363 40.196 92.2774 39.5102 90.8019 39.5102H88.026V43.1692H90.7672Z" fill="#B4B7C9"/>
<path d="M95.5391 38.9531H98.2456C100.801 38.9531 102.566 40.7067 102.566 42.9953V43.0181C102.566 45.3066 100.801 47.0837 98.2456 47.0837H95.5391V38.9531ZM96.1432 39.5102V46.526H98.2456C100.51 46.526 101.939 44.9811 101.939 43.0416V43.0181C101.939 41.0905 100.51 39.5104 98.2456 39.5104H96.1432V39.5102Z" fill="#B4B7C9"/>
<path d="M103.68 45.9018L104.075 45.4488C104.97 46.2737 105.794 46.6565 106.99 46.6565C108.209 46.6565 109.046 45.9714 109.046 45.0424V45.0189C109.046 44.1596 108.593 43.6603 106.747 43.2884C104.796 42.8934 104.005 42.2313 104.005 40.9998V40.9766C104.005 39.7686 105.109 38.8398 106.618 38.8398C107.804 38.8398 108.582 39.1647 109.406 39.8268L109.023 40.3031C108.256 39.641 107.489 39.3851 106.596 39.3851C105.399 39.3851 104.61 40.0706 104.61 40.9183V40.9418C104.61 41.8012 105.052 42.3238 106.978 42.7187C108.859 43.1018 109.651 43.7758 109.651 44.9605V44.9838C109.651 46.296 108.524 47.2022 106.956 47.2022C105.655 47.2024 104.655 46.773 103.68 45.9018Z" fill="#B4B7C9"/>
<path d="M11.3037 80V78.047H6.58574V77.067L9.95974 69.92H11.1147L7.74074 77.067H11.3037V74.127H12.3397V77.067H13.4387V78.047H12.3397V80H11.3037ZM14.1468 80L17.1008 76.178L14.2098 72.44H15.4418L17.7028 75.387L19.9428 72.44H21.1748L18.2838 76.178L21.2448 80H20.0058L17.7028 76.969L15.3858 80H14.1468ZM34.1884 80L34.1954 75.037C34.1954 74.4537 34.032 73.9963 33.7054 73.665C33.3834 73.329 32.9727 73.161 32.4734 73.161C32.1887 73.161 31.911 73.2263 31.6404 73.357C31.3697 73.4877 31.1457 73.6977 30.9684 73.987C30.7957 74.2763 30.7094 74.6543 30.7094 75.121L30.1004 74.946C30.0864 74.4047 30.1914 73.931 30.4154 73.525C30.644 73.119 30.9567 72.804 31.3534 72.58C31.7547 72.3513 32.2074 72.237 32.7114 72.237C33.4721 72.237 34.0811 72.4727 34.5384 72.944C34.9957 73.4107 35.2244 74.043 35.2244 74.841L35.2174 80H34.1884ZM25.1654 80V72.44H26.0894V74.302H26.2014V80H25.1654ZM29.6874 80L29.6944 75.107C29.6944 74.505 29.5334 74.0313 29.2114 73.686C28.894 73.336 28.474 73.161 27.9514 73.161C27.4287 73.161 27.0064 73.3407 26.6844 73.7C26.3624 74.0547 26.2014 74.5283 26.2014 75.121L25.5854 74.785C25.5854 74.2997 25.6997 73.8657 25.9284 73.483C26.157 73.0957 26.4697 72.7923 26.8664 72.573C27.263 72.349 27.7134 72.237 28.2174 72.237C28.698 72.237 29.125 72.3397 29.4984 72.545C29.8764 72.7503 30.1727 73.049 30.3874 73.441C30.602 73.833 30.7094 74.309 30.7094 74.869L30.7024 80H29.6874ZM40.1556 80.21C39.4042 80.21 38.7626 80.0397 38.2306 79.699C37.6986 79.3583 37.2902 78.887 37.0056 78.285C36.7209 77.683 36.5786 76.9923 36.5786 76.213C36.5786 75.4197 36.7232 74.7243 37.0126 74.127C37.3019 73.5297 37.7126 73.0653 38.2446 72.734C38.7812 72.398 39.4182 72.23 40.1556 72.23C40.9116 72.23 41.5556 72.4003 42.0876 72.741C42.6242 73.077 43.0326 73.546 43.3126 74.148C43.5972 74.7453 43.7396 75.4337 43.7396 76.213C43.7396 77.0063 43.5972 77.704 43.3126 78.306C43.0279 78.9033 42.6172 79.37 42.0806 79.706C41.5439 80.042 40.9022 80.21 40.1556 80.21ZM40.1556 79.223C40.9956 79.223 41.6209 78.9453 42.0316 78.39C42.4422 77.83 42.6476 77.1043 42.6476 76.213C42.6476 75.2983 42.4399 74.5703 42.0246 74.029C41.6139 73.4877 40.9909 73.217 40.1556 73.217C39.5909 73.217 39.1242 73.3453 38.7556 73.602C38.3916 73.854 38.1186 74.2063 37.9366 74.659C37.7592 75.107 37.6706 75.625 37.6706 76.213C37.6706 77.123 37.8806 77.8533 38.3006 78.404C38.7206 78.95 39.3389 79.223 40.1556 79.223ZM48.6787 80.21C47.9834 80.21 47.3954 80.035 46.9147 79.685C46.434 79.3303 46.07 78.852 45.8227 78.25C45.5754 77.6433 45.4517 76.9643 45.4517 76.213C45.4517 75.4477 45.5754 74.7663 45.8227 74.169C46.0747 73.567 46.4434 73.0933 46.9287 72.748C47.414 72.4027 48.0114 72.23 48.7207 72.23C49.4114 72.23 50.004 72.405 50.4987 72.755C50.9934 73.105 51.3714 73.581 51.6327 74.183C51.8987 74.785 52.0317 75.4617 52.0317 76.213C52.0317 76.969 51.8987 77.648 51.6327 78.25C51.3667 78.852 50.984 79.3303 50.4847 79.685C49.9854 80.035 49.3834 80.21 48.6787 80.21ZM45.2767 80V69.92H46.3127V74.309H46.2007V80H45.2767ZM48.5737 79.251C49.101 79.251 49.5397 79.118 49.8897 78.852C50.2397 78.586 50.501 78.2243 50.6737 77.767C50.851 77.305 50.9397 76.787 50.9397 76.213C50.9397 75.6437 50.8534 75.1303 50.6807 74.673C50.508 74.2157 50.2444 73.854 49.8897 73.588C49.5397 73.322 49.094 73.189 48.5527 73.189C48.0254 73.189 47.5867 73.3173 47.2367 73.574C46.8914 73.8307 46.6324 74.1877 46.4597 74.645C46.287 75.0977 46.2007 75.6203 46.2007 76.213C46.2007 76.7963 46.287 77.319 46.4597 77.781C46.6324 78.2383 46.8937 78.5977 47.2437 78.859C47.5937 79.1203 48.037 79.251 48.5737 79.251ZM53.7089 71.005V69.85H54.7379V71.005H53.7089ZM53.7089 80V72.44H54.7379V80H53.7089ZM56.9764 80V69.71H58.0054V80H56.9764ZM63.303 80.21C62.5657 80.21 61.9264 80.0467 61.385 79.72C60.8484 79.3933 60.4307 78.9337 60.132 78.341C59.8334 77.7483 59.684 77.053 59.684 76.255C59.684 75.429 59.831 74.715 60.125 74.113C60.419 73.511 60.832 73.0467 61.364 72.72C61.9007 72.3933 62.533 72.23 63.261 72.23C64.0077 72.23 64.6447 72.4027 65.172 72.748C65.6994 73.0887 66.0984 73.5787 66.369 74.218C66.6397 74.8573 66.7634 75.6203 66.74 76.507H65.69V76.143C65.6714 75.163 65.459 74.4233 65.053 73.924C64.6517 73.4247 64.0637 73.175 63.289 73.175C62.477 73.175 61.854 73.4387 61.42 73.966C60.9907 74.4933 60.776 75.2447 60.776 76.22C60.776 77.172 60.9907 77.9117 61.42 78.439C61.854 78.9617 62.4677 79.223 63.261 79.223C63.8024 79.223 64.2737 79.0993 64.675 78.852C65.081 78.6 65.4007 78.2383 65.634 77.767L66.593 78.138C66.2944 78.796 65.8534 79.307 65.27 79.671C64.6914 80.0303 64.0357 80.21 63.303 80.21ZM60.412 76.507V75.646H66.187V76.507H60.412ZM74.2532 80.21C73.5019 80.21 72.8602 80.0397 72.3282 79.699C71.7962 79.3583 71.3879 78.887 71.1032 78.285C70.8185 77.683 70.6762 76.9923 70.6762 76.213C70.6762 75.4197 70.8209 74.7243 71.1102 74.127C71.3995 73.5297 71.8102 73.0653 72.3422 72.734C72.8789 72.398 73.5159 72.23 74.2532 72.23C75.0092 72.23 75.6532 72.4003 76.1852 72.741C76.7219 73.077 77.1302 73.546 77.4102 74.148C77.6949 74.7453 77.8372 75.4337 77.8372 76.213C77.8372 77.0063 77.6949 77.704 77.4102 78.306C77.1255 78.9033 76.7149 79.37 76.1782 79.706C75.6415 80.042 74.9999 80.21 74.2532 80.21ZM74.2532 79.223C75.0932 79.223 75.7185 78.9453 76.1292 78.39C76.5399 77.83 76.7452 77.1043 76.7452 76.213C76.7452 75.2983 76.5375 74.5703 76.1222 74.029C75.7115 73.4877 75.0885 73.217 74.2532 73.217C73.6885 73.217 73.2219 73.3453 72.8532 73.602C72.4892 73.854 72.2162 74.2063 72.0342 74.659C71.8569 75.107 71.7682 75.625 71.7682 76.213C71.7682 77.123 71.9782 77.8533 72.3982 78.404C72.8182 78.95 73.4365 79.223 74.2532 79.223ZM80.1304 80V71.88C80.1304 71.684 80.1397 71.4903 80.1584 71.299C80.1817 71.1077 80.226 70.9257 80.2914 70.753C80.3567 70.5757 80.4594 70.4123 80.5994 70.263C80.7534 70.095 80.9214 69.9737 81.1034 69.899C81.2854 69.8197 81.4744 69.7683 81.6704 69.745C81.871 69.7217 82.067 69.71 82.2584 69.71H83.2244V70.578H82.3284C81.9364 70.578 81.6424 70.6737 81.4464 70.865C81.255 71.0563 81.1594 71.3573 81.1594 71.768V80H80.1304ZM78.8214 73.322V72.44H83.2244V73.322H78.8214ZM91.263 80C90.8383 80.0887 90.4183 80.1237 90.003 80.105C89.5923 80.0863 89.2237 79.9977 88.897 79.839C88.575 79.6803 88.33 79.433 88.162 79.097C88.0267 78.817 87.952 78.5347 87.938 78.25C87.9287 77.9607 87.924 77.6317 87.924 77.263V70.34H88.946V77.221C88.946 77.5383 88.9483 77.8043 88.953 78.019C88.9623 78.229 89.0113 78.4157 89.1 78.579C89.268 78.8917 89.534 79.0783 89.898 79.139C90.2667 79.1997 90.7217 79.1857 91.263 79.097V80ZM86.307 73.322V72.44H91.263V73.322H86.307ZM98.2125 80V76.143C98.2125 75.723 98.1728 75.338 98.0935 74.988C98.0141 74.6333 97.8858 74.3253 97.7085 74.064C97.5358 73.798 97.3095 73.5927 97.0295 73.448C96.7541 73.3033 96.4181 73.231 96.0215 73.231C95.6575 73.231 95.3355 73.294 95.0555 73.42C94.7801 73.546 94.5468 73.728 94.3555 73.966C94.1688 74.1993 94.0265 74.484 93.9285 74.82C93.8305 75.156 93.7815 75.5387 93.7815 75.968L93.0535 75.807C93.0535 75.0323 93.1888 74.3813 93.4595 73.854C93.7301 73.3267 94.1035 72.9277 94.5795 72.657C95.0555 72.3863 95.6015 72.251 96.2175 72.251C96.6701 72.251 97.0645 72.321 97.4005 72.461C97.7411 72.601 98.0281 72.79 98.2615 73.028C98.4995 73.266 98.6908 73.539 98.8355 73.847C98.9801 74.1503 99.0851 74.4747 99.1505 74.82C99.2158 75.1607 99.2485 75.5013 99.2485 75.842V80H98.2125ZM92.7455 80V69.92H93.6765V75.611H93.7815V80H92.7455ZM104.264 80.21C103.527 80.21 102.887 80.0467 102.346 79.72C101.809 79.3933 101.392 78.9337 101.093 78.341C100.794 77.7483 100.645 77.053 100.645 76.255C100.645 75.429 100.792 74.715 101.086 74.113C101.38 73.511 101.793 73.0467 102.325 72.72C102.862 72.3933 103.494 72.23 104.222 72.23C104.969 72.23 105.606 72.4027 106.133 72.748C106.66 73.0887 107.059 73.5787 107.33 74.218C107.601 74.8573 107.724 75.6203 107.701 76.507H106.651V76.143C106.632 75.163 106.42 74.4233 106.014 73.924C105.613 73.4247 105.025 73.175 104.25 73.175C103.438 73.175 102.815 73.4387 102.381 73.966C101.952 74.4933 101.737 75.2447 101.737 76.22C101.737 77.172 101.952 77.9117 102.381 78.439C102.815 78.9617 103.429 79.223 104.222 79.223C104.763 79.223 105.235 79.0993 105.636 78.852C106.042 78.6 106.362 78.2383 106.595 77.767L107.554 78.138C107.255 78.796 106.814 79.307 106.231 79.671C105.652 80.0303 104.997 80.21 104.264 80.21ZM101.373 76.507V75.646H107.148V76.507H101.373ZM114.99 80.21C114.285 80.21 113.683 80.035 113.184 79.685C112.685 79.3303 112.302 78.852 112.036 78.25C111.77 77.648 111.637 76.969 111.637 76.213C111.637 75.4617 111.768 74.785 112.029 74.183C112.295 73.581 112.675 73.105 113.17 72.755C113.665 72.405 114.257 72.23 114.948 72.23C115.657 72.23 116.255 72.4027 116.74 72.748C117.225 73.0933 117.592 73.567 117.839 74.169C118.091 74.7663 118.217 75.4477 118.217 76.213C118.217 76.9643 118.093 77.6433 117.846 78.25C117.599 78.852 117.235 79.3303 116.754 79.685C116.273 80.035 115.685 80.21 114.99 80.21ZM115.095 79.251C115.632 79.251 116.075 79.1203 116.425 78.859C116.775 78.5977 117.036 78.2383 117.209 77.781C117.382 77.319 117.468 76.7963 117.468 76.213C117.468 75.6203 117.382 75.0977 117.209 74.645C117.036 74.1877 116.775 73.8307 116.425 73.574C116.08 73.3173 115.643 73.189 115.116 73.189C114.575 73.189 114.127 73.322 113.772 73.588C113.417 73.854 113.154 74.2157 112.981 74.673C112.813 75.1303 112.729 75.6437 112.729 76.213C112.729 76.787 112.815 77.305 112.988 77.767C113.165 78.2243 113.429 78.586 113.779 78.852C114.129 79.118 114.568 79.251 115.095 79.251ZM117.468 80V74.309H117.356V69.92H118.392V80H117.468ZM122.519 80.21C121.95 80.21 121.471 80.1073 121.084 79.902C120.701 79.6967 120.414 79.4237 120.223 79.083C120.032 78.7423 119.936 78.3713 119.936 77.97C119.936 77.5593 120.018 77.2093 120.181 76.92C120.349 76.626 120.575 76.3857 120.86 76.199C121.149 76.0123 121.483 75.87 121.861 75.772C122.244 75.6787 122.666 75.597 123.128 75.527C123.595 75.4523 124.05 75.3893 124.493 75.338C124.941 75.282 125.333 75.2283 125.669 75.177L125.305 75.401C125.319 74.6543 125.174 74.1013 124.871 73.742C124.568 73.3827 124.04 73.203 123.289 73.203C122.771 73.203 122.332 73.3197 121.973 73.553C121.618 73.7863 121.369 74.155 121.224 74.659L120.223 74.365C120.396 73.6883 120.743 73.1633 121.266 72.79C121.789 72.4167 122.468 72.23 123.303 72.23C123.994 72.23 124.579 72.3607 125.06 72.622C125.545 72.8787 125.888 73.252 126.089 73.742C126.182 73.9613 126.243 74.2063 126.271 74.477C126.299 74.7477 126.313 75.023 126.313 75.303V80H125.396V78.103L125.662 78.215C125.405 78.8637 125.006 79.3583 124.465 79.699C123.924 80.0397 123.275 80.21 122.519 80.21ZM122.638 79.321C123.119 79.321 123.539 79.2347 123.898 79.062C124.257 78.8893 124.547 78.6537 124.766 78.355C124.985 78.0517 125.128 77.711 125.193 77.333C125.249 77.0903 125.279 76.8243 125.284 76.535C125.289 76.241 125.291 76.0217 125.291 75.877L125.683 76.08C125.333 76.1267 124.953 76.1733 124.542 76.22C124.136 76.2667 123.735 76.3203 123.338 76.381C122.946 76.4417 122.591 76.514 122.274 76.598C122.059 76.6587 121.852 76.745 121.651 76.857C121.45 76.9643 121.285 77.109 121.154 77.291C121.028 77.473 120.965 77.6993 120.965 77.97C120.965 78.1893 121.019 78.4017 121.126 78.607C121.238 78.8123 121.415 78.9827 121.658 79.118C121.905 79.2533 122.232 79.321 122.638 79.321ZM128.789 83.36L130.252 79.391L130.273 80.567L126.962 72.44H128.054L130.77 79.237H130.322L132.828 72.44H133.878L129.818 83.36H128.789Z" fill="#565973"/>
</svg>
